<svg width="42" height="42" viewBox="0 0 42 42" fill="none" xmlns="http://www.w3.org/2000/svg">
<circle cx="21" cy="21" r="21" fill="#FBF9F9"/>
<path d="M10.5 31.5C9.85829 31.5 9.30899 31.2715 8.85204 30.8145C8.3951 30.3576 8.16663 29.8083 8.16663 29.1666V15.1666C8.16663 14.525 8.3951 13.9757 8.85204 13.5187C9.30899 13.0618 9.85829 12.8333 10.5 12.8333H14.175L16.3333 10.5H23.3333V12.8333H17.3541L15.225 15.1666H10.5V29.1666H29.1666V18.6666H31.5V29.1666C31.5 29.8083 31.2715 30.3576 30.8145 30.8145C30.3576 31.2715 29.8083 31.5 29.1666 31.5H10.5ZM29.1666 15.1666V12.8333H26.8333V10.5H29.1666V8.16663H31.5V10.5H33.8333V12.8333H31.5V15.1666H29.1666ZM19.8333 27.4166C21.2916 27.4166 22.5312 26.9062 23.552 25.8854C24.5729 24.8645 25.0833 23.625 25.0833 22.1666C25.0833 20.7083 24.5729 19.4687 23.552 18.4479C22.5312 17.427 21.2916 16.9166 19.8333 16.9166C18.375 16.9166 17.1354 17.427 16.1145 18.4479C15.0937 19.4687 14.5833 20.7083 14.5833 22.1666C14.5833 23.625 15.0937 24.8645 16.1145 25.8854C17.1354 26.9062 18.375 27.4166 19.8333 27.4166ZM19.8333 25.0833C19.0166 25.0833 18.3263 24.8013 17.7625 24.2375C17.1986 23.6736 16.9166 22.9833 16.9166 22.1666C16.9166 21.35 17.1986 20.6597 17.7625 20.0958C18.3263 19.5319 19.0166 19.25 19.8333 19.25C20.65 19.25 21.3402 19.5319 21.9041 20.0958C22.468 20.6597 22.75 21.35 22.75 22.1666C22.75 22.9833 22.468 23.6736 21.9041 24.2375C21.3402 24.8013 20.65 25.0833 19.8333 25.0833Z" fill="#C9C7C7"/>
</svg>
