<svg width="48" height="48" viewBox="0 0 48 48" fill="none" xmlns="http://www.w3.org/2000/svg">
<path fill-rule="evenodd" clip-rule="evenodd" d="M7.4 40.6L12 36H40C41.1 36 42.0417 35.6083 42.825 34.825C43.6083 34.0417 44 33.1 44 32V18C44 17.4333 43.8083 16.9583 43.425 16.575C43.0417 16.1917 42.5667 16 42 16C41.4333 16 40.9583 16.1917 40.575 16.575C40.1917 16.9583 40 17.4333 40 18V32H10.3L8 34.25V8H26C26.5667 8 27.0417 7.80833 27.425 7.425C27.8083 7.04167 28 6.56667 28 6C28 5.43333 27.8083 4.95833 27.425 4.575C27.0417 4.19167 26.5667 4 26 4H8C6.9 4 5.95833 4.39167 5.175 5.175C4.39167 5.95833 4 6.9 4 8V39.15C4 40.05 4.40833 40.675 5.225 41.025C6.04167 41.375 6.76667 41.2333 7.4 40.6Z" fill="#FBF9F9"/>
<path d="M38 12C36.3333 12 34.9167 11.4167 33.75 10.25C32.5833 9.08333 32 7.66667 32 6C32 4.33333 32.5833 2.91667 33.75 1.75C34.9167 0.583333 36.3333 0 38 0C39.6667 0 41.0833 0.583333 42.25 1.75C43.4167 2.91667 44 4.33333 44 6C44 7.66667 43.4167 9.08333 42.25 10.25C41.0833 11.4167 39.6667 12 38 12Z" fill="#FBF9F9"/>
</svg>
