<svg width="48" height="48" viewBox="0 0 48 48" fill="none" xmlns="http://www.w3.org/2000/svg">
<circle cx="24" cy="24" r="24" fill="#FBF9F9"/>
<path d="M23.6939 24.4898C22.3469 24.4898 21.1939 24.0102 20.2347 23.051C19.2755 22.0918 18.7959 20.9387 18.7959 19.5918C18.7959 18.2449 19.2755 17.0918 20.2347 16.1326C21.1939 15.1734 22.3469 14.6938 23.6939 14.6938C25.0408 14.6938 26.1939 15.1734 27.1531 16.1326C28.1122 17.0918 28.5918 18.2449 28.5918 19.5918C28.5918 20.9387 28.1122 22.0918 27.1531 23.051C26.1939 24.0102 25.0408 24.4898 23.6939 24.4898ZM13.8979 31.8367V30.8571C13.8979 30.1632 14.0765 29.5255 14.4337 28.9438C14.7908 28.3622 15.2653 27.9183 15.8571 27.6122C17.1224 26.9796 18.4082 26.5051 19.7143 26.1887C21.0204 25.8724 22.3469 25.7143 23.6939 25.7143C25.0408 25.7143 26.3673 25.8724 27.6735 26.1887C28.9796 26.5051 30.2653 26.9796 31.5306 27.6122C32.1224 27.9183 32.5969 28.3622 32.9541 28.9438C33.3112 29.5255 33.4898 30.1632 33.4898 30.8571V31.8367C33.4898 32.5102 33.25 33.0867 32.7704 33.5663C32.2908 34.0459 31.7143 34.2857 31.0408 34.2857H16.3469C15.6735 34.2857 15.0969 34.0459 14.6173 33.5663C14.1377 33.0867 13.8979 32.5102 13.8979 31.8367ZM16.3469 31.8367H31.0408V30.8571C31.0408 30.6326 30.9847 30.4285 30.8724 30.2449C30.7602 30.0612 30.6122 29.9183 30.4286 29.8163C29.3265 29.2653 28.2143 28.852 27.0918 28.5765C25.9694 28.301 24.8367 28.1632 23.6939 28.1632C22.551 28.1632 21.4184 28.301 20.2959 28.5765C19.1735 28.852 18.0612 29.2653 16.9592 29.8163C16.7755 29.9183 16.6275 30.0612 16.5153 30.2449C16.4031 30.4285 16.3469 30.6326 16.3469 30.8571V31.8367ZM23.6939 22.0408C24.3673 22.0408 24.9439 21.801 25.4235 21.3214C25.9031 20.8418 26.1428 20.2653 26.1428 19.5918C26.1428 18.9183 25.9031 18.3418 25.4235 17.8622C24.9439 17.3826 24.3673 17.1428 23.6939 17.1428C23.0204 17.1428 22.4439 17.3826 21.9643 17.8622C21.4847 18.3418 21.2449 18.9183 21.2449 19.5918C21.2449 20.2653 21.4847 20.8418 21.9643 21.3214C22.4439 21.801 23.0204 22.0408 23.6939 22.0408Z" fill="#C9C7C7"/>
</svg>
