<svg width="48" height="48" viewBox="0 0 48 48" fill="none" xmlns="http://www.w3.org/2000/svg">
<path d="M19 34C15.3667 34 12.2917 32.7417 9.775 30.225C7.25833 27.7083 6 24.6333 6 21C6 17.3667 7.25833 14.2917 9.775 11.775C12.2917 9.25833 15.3667 8 19 8C22.6333 8 25.7083 9.25833 28.225 11.775C30.7417 14.2917 32 17.3667 32 21C32 22.4667 31.7667 23.85 31.3 25.15C30.8333 26.45 30.2 27.6 29.4 28.6L40.6 39.8C40.9667 40.1667 41.15 40.6333 41.15 41.2C41.15 41.7667 40.9667 42.2333 40.6 42.6C40.2333 42.9667 39.7667 43.15 39.2 43.15C38.6333 43.15 38.1667 42.9667 37.8 42.6L26.6 31.4C25.6 32.2 24.45 32.8333 23.15 33.3C21.85 33.7667 20.4667 34 19 34ZM19 30C21.5 30 23.625 29.125 25.375 27.375C27.125 25.625 28 23.5 28 21C28 18.5 27.125 16.375 25.375 14.625C23.625 12.875 21.5 12 19 12C16.5 12 14.375 12.875 12.625 14.625C10.875 16.375 10 18.5 10 21C10 23.5 10.875 25.625 12.625 27.375C14.375 29.125 16.5 30 19 30Z" fill="#FBF9F9"/>
</svg>
