<svg width="52" height="52" viewBox="0 0 52 52" fill="none" xmlns="http://www.w3.org/2000/svg">
<circle cx="26" cy="26" r="26" fill="#C9C7C7"/>
<path d="M25.6684 25.6684C24.2092 25.6684 22.9601 25.1488 21.9209 24.1097C20.8818 23.0706 20.3623 21.8215 20.3623 20.3623C20.3623 18.9031 20.8818 17.6539 21.9209 16.6148C22.9601 15.5757 24.2092 15.0562 25.6684 15.0562C27.1276 15.0562 28.3767 15.5757 29.4158 16.6148C30.455 17.6539 30.9745 18.9031 30.9745 20.3623C30.9745 21.8215 30.455 23.0706 29.4158 24.1097C28.3767 25.1488 27.1276 25.6684 25.6684 25.6684ZM15.0562 33.6276V32.5664C15.0562 31.8147 15.2496 31.1238 15.6365 30.4937C16.0234 29.8636 16.5374 29.3827 17.1786 29.0511C18.5493 28.3657 19.9422 27.8516 21.3572 27.509C22.7721 27.1663 24.2092 26.9949 25.6684 26.9949C27.1276 26.9949 28.5647 27.1663 29.9796 27.509C31.3946 27.8516 32.7874 28.3657 34.1582 29.0511C34.7994 29.3827 35.3134 29.8636 35.7003 30.4937C36.0872 31.1238 36.2806 31.8147 36.2806 32.5664V33.6276C36.2806 34.3572 36.0209 34.9817 35.5013 35.5013C34.9817 36.0209 34.3572 36.2806 33.6276 36.2806H17.7092C16.9796 36.2806 16.355 36.0209 15.8355 35.5013C15.3159 34.9817 15.0562 34.3572 15.0562 33.6276ZM17.7092 33.6276H33.6276V32.5664C33.6276 32.3232 33.5668 32.1021 33.4452 31.9031C33.3236 31.7041 33.1633 31.5494 32.9643 31.4388C31.7704 30.8419 30.5655 30.3942 29.3495 30.0957C28.1335 29.7972 26.9065 29.648 25.6684 29.648C24.4303 29.648 23.2033 29.7972 21.9873 30.0957C20.7713 30.3942 19.5664 30.8419 18.3725 31.4388C18.1735 31.5494 18.0132 31.7041 17.8916 31.9031C17.77 32.1021 17.7092 32.3232 17.7092 32.5664V33.6276ZM25.6684 23.0153C26.398 23.0153 27.0226 22.7556 27.5421 22.236C28.0617 21.7164 28.3215 21.0919 28.3215 20.3623C28.3215 19.6327 28.0617 19.0081 27.5421 18.4886C27.0226 17.969 26.398 17.7092 25.6684 17.7092C24.9388 17.7092 24.3142 17.969 23.7947 18.4886C23.2751 19.0081 23.0153 19.6327 23.0153 20.3623C23.0153 21.0919 23.2751 21.7164 23.7947 22.236C24.3142 22.7556 24.9388 23.0153 25.6684 23.0153Z" fill="#FBF9F9"/>
</svg>
