<?xml version="1.0" encoding="UTF-8"?>
<svg id="Capa_2" data-name="Capa 2" xmlns="http://www.w3.org/2000/svg" viewBox="0 0 732 142.83">
  <defs>
    <style>
      .cls-1 {
        fill: #e3550b;
      }
    </style>
  </defs>
  <g id="trazo">
    <g>
      <path class="cls-1" d="m0,0h84.06v19.11H23.43v42.13h47.27v19.11H23.43v62.48H0V0Z"/>
      <path class="cls-1" d="m151.96,142.83c-10.69,0-20.31-2.4-28.87-7.19-8.56-4.79-15.35-11.58-20.35-20.35-5-8.77-7.5-18.98-7.5-30.62s2.57-21.99,7.71-30.62,12.09-15.34,20.86-20.14c8.77-4.79,18.5-7.19,29.18-7.19s20.58,2.4,29.29,7.19c8.7,4.8,15.62,11.51,20.76,20.14s7.71,18.84,7.71,30.62-2.64,21.86-7.91,30.62c-5.28,8.77-12.37,15.55-21.27,20.35-8.91,4.8-18.77,7.19-29.59,7.19Zm0-20.35c5.89,0,11.47-1.4,16.75-4.21,5.27-2.81,9.59-7.02,12.95-12.64,3.36-5.62,5.04-12.6,5.04-20.96s-1.64-15.52-4.93-21.06c-3.29-5.55-7.5-9.69-12.64-12.43-5.14-2.74-10.65-4.11-16.54-4.11s-11.37,1.37-16.44,4.11c-5.07,2.74-9.18,6.88-12.33,12.43-3.15,5.55-4.73,12.57-4.73,21.06s1.51,15.35,4.52,20.96c3.01,5.62,7.02,9.83,12.02,12.64,5,2.81,10.45,4.21,16.34,4.21Z"/>
      <path class="cls-1" d="m221.92,142.83V29.59h23.43v113.24h-23.43Zm16.65-57.13l6.78-31.24c2.74-8.08,7.22-14.49,13.46-19.22,6.23-4.73,13.32-7.09,21.27-7.09v24.25c-1.1-.27-2.16-.44-3.19-.51-1.03-.07-2.09-.1-3.18-.1-5.62,0-10.55,1.27-14.8,3.8-4.25,2.54-7.57,6.3-9.97,11.3-2.4,5-3.6,11.27-3.6,18.8h-6.78Z"/>
      <path class="cls-1" d="m291.26,0h99.67v19.11h-38.02v123.72h-23.43V19.11h-38.23V0Z"/>
      <path class="cls-1" d="m678.36,142.83c-9.18,0-17.5-1.44-24.97-4.32-7.47-2.88-13.84-6.92-19.11-12.13-5.28-5.21-9.32-11.27-12.13-18.19-2.81-6.92-4.21-14.49-4.21-22.71,0-8.9,1.61-16.96,4.83-24.15,3.22-7.19,7.6-13.39,13.15-18.6,5.55-5.21,11.95-9.18,19.22-11.92,7.26-2.74,14.86-4.11,22.81-4.11,7.12,0,13.63.96,19.52,2.88,5.89,1.92,11,4.59,15.31,8.02,4.32,3.43,7.64,7.4,9.97,11.92,2.33,4.52,3.49,9.39,3.49,14.59,0,7.26-2.13,13.29-6.37,18.08-4.25,4.8-9.8,8.56-16.65,11.3-6.85,2.74-14.39,4.59-22.61,5.55-8.22.96-16.37,1.23-24.46.82-1.37-.14-3.08-.24-5.14-.31-2.06-.07-3.87-.13-5.45-.21-1.58-.07-2.43-.1-2.57-.1.96,4.52,3.12,8.6,6.47,12.23,3.36,3.63,7.57,6.47,12.64,8.53,5.07,2.05,10.48,3.08,16.24,3.08,4.66,0,9.28-.82,13.87-2.47,4.59-1.64,8.8-3.9,12.64-6.78,3.83-2.88,7.06-6.17,9.66-9.86l17.47,12.54c-4.52,6.03-9.63,10.99-15.31,14.9-5.69,3.9-11.75,6.78-18.19,8.63-6.44,1.85-13.15,2.77-20.14,2.77Zm-20.14-61.66c5.07,0,10.21-.24,15.41-.72,5.21-.48,10.03-1.37,14.49-2.67,4.45-1.3,8.05-3.11,10.79-5.45,2.74-2.33,4.11-5.34,4.11-9.04,0-3.15-1-5.99-2.98-8.53-1.99-2.53-4.76-4.55-8.32-6.06-3.56-1.51-7.74-2.26-12.54-2.26-7.13,0-13.5,1.58-19.11,4.73-5.62,3.15-10.04,7.33-13.26,12.54-3.22,5.21-4.97,10.82-5.24,16.85,1.92.14,4.32.28,7.19.41,2.88.14,6.03.21,9.45.21Z"/>
      <path class="cls-1" d="m588.93,40.94c-11.28-10.92-26.09-16.67-41.7-16.16-14.68.47-28.48,6.46-38.87,16.86-.97.97-1.92,1.99-2.77,2.97-2.88,3.33-5.42,7.23-7.55,11.6-5.42,11.13-5.93,22.52-6.16,27.23-.09,1.84-.08,2.96-.38,4.91-.32,2.01-1.56,8.58-6.29,14.71-5.89,7.65-15.13,12.43-25.45,12.43-8.58,0-16.65-3.34-22.71-9.41-6.07-6.07-9.41-14.14-9.41-22.72.01-19.15.03-38.31.04-57.46h-24.9c-.22,19.29-.44,38.57-.66,57.86,0,16.06,6.33,31.03,17.83,42.17,10.83,10.48,24.9,16.19,39.82,16.19.63,0,1.26-.01,1.89-.03,14.68-.47,28.48-6.46,38.87-16.85.97-.96,1.9-1.96,2.77-2.97,5.16-5.95,9.12-13.03,11.47-20.47,1.49-4.73,2.24-9.64,2.24-14.6v-3.68c0-1.67.13-3.35.38-4.98,2.41-15.47,16.05-27.14,31.74-27.14,8.58,0,16.65,3.34,22.71,9.41,6.07,6.07,9.41,14.13,9.41,22.71.07,19.78.13,39.56.2,59.33h24.9c.14-19.91.28-39.82.42-59.72,0-16.06-6.33-31.03-17.83-42.17Z"/>
    </g>
  </g>
</svg>