<svg width="61" height="36" viewBox="0 0 61 36" fill="none" xmlns="http://www.w3.org/2000/svg">
<g clip-path="url(#clip0_2550_34)">
<path d="M55.6851 4.93696C52.3223 1.60596 47.9063 -0.145864 43.2548 0.00937806C38.8806 0.152575 34.7656 1.978 31.6671 5.14841C31.3793 5.44284 31.094 5.756 30.8428 6.0531C29.9832 7.06886 29.2256 8.2586 28.5923 9.58886C26.9763 12.9814 26.8246 16.4556 26.7565 17.8889C26.7304 18.451 26.7343 18.7923 26.6414 19.3865C26.5459 19.9981 26.1769 22.0015 24.7677 23.8698C23.0117 26.2011 20.2588 27.6611 17.1813 27.6611C14.6233 27.6611 12.2196 26.6427 10.4113 24.7932C8.60307 22.9423 7.60734 20.4825 7.60734 17.8675C7.61126 12.0286 7.6165 6.18826 7.62042 0.349304H0.197576C0.132154 6.22707 0.0654226 12.1075 0 17.9866C0 22.8821 1.8881 27.447 5.31493 30.8422C8.54157 34.0381 12.7378 35.7792 17.1826 35.7792C17.3697 35.7792 17.5568 35.7765 17.7439 35.7698C22.1194 35.6266 26.2344 33.8012 29.3302 30.6321C29.6181 30.3377 29.8968 30.0339 30.1559 29.7261C31.6933 27.9127 32.8748 25.7554 33.5736 23.4857C34.0158 22.043 34.2409 20.5454 34.2409 19.0332V17.913C34.2409 17.4045 34.2788 16.8932 34.356 16.3941C35.073 11.6766 39.1397 8.11942 43.8161 8.11942C46.3741 8.11942 48.7778 9.13785 50.586 10.9874C52.3943 12.8369 53.39 15.2967 53.39 17.9117C53.4097 23.942 53.4293 29.971 53.4489 36.0014H60.8718C60.9136 29.9322 60.9555 23.8631 60.9974 17.7926C60.9974 12.8971 59.1093 8.3322 55.6825 4.93696H55.6851Z" fill="#FBF9F9"/>
</g>
<defs>
<clipPath id="clip0_2550_34">
<rect width="61" height="36" fill="white"/>
</clipPath>
</defs>
</svg>
