<?xml version="1.0" encoding="UTF-8"?>
<svg id="Capa_2" data-name="Capa 2" xmlns="http://www.w3.org/2000/svg" viewBox="0 0 466.2 269">
  <defs>
    <style>
      .cls-1 {
        fill: #e3550b;
      }
    </style>
  </defs>
  <g id="trazo">
    <path class="cls-1" d="m425.58,36.89C399.88,12,366.13-1.09,330.58.07c-33.43,1.07-64.88,14.71-88.56,38.4-2.2,2.2-4.38,4.54-6.3,6.76-6.57,7.59-12.36,16.48-17.2,26.42-12.35,25.35-13.51,51.31-14.03,62.02-.2,4.2-.17,6.75-.88,11.19-.73,4.57-3.55,19.54-14.32,33.5-13.42,17.42-34.46,28.33-57.98,28.33-19.55,0-37.92-7.61-51.74-21.43-13.82-13.83-21.43-32.21-21.43-51.75.03-43.63.07-87.27.1-130.9H1.51C1.01,46.53.5,90.47,0,134.4c0,36.58,14.43,70.69,40.62,96.06,24.66,23.88,56.73,36.89,90.7,36.89,1.43,0,2.86-.02,4.29-.07,33.44-1.07,64.89-14.71,88.55-38.39,2.2-2.2,4.33-4.47,6.31-6.77,11.75-13.55,20.78-29.67,26.12-46.63,3.38-10.78,5.1-21.97,5.1-33.27v-8.37c0-3.8.29-7.62.88-11.35,5.48-35.25,36.56-61.83,72.3-61.83,19.55,0,37.92,7.61,51.74,21.43,13.82,13.82,21.43,32.2,21.43,51.74.15,45.06.3,90.11.45,135.17h56.73c.32-45.35.64-90.7.96-136.06,0-36.58-14.43-70.69-40.62-96.06Z"/>
  </g>
</svg>